<svg xmlns="http://www.w3.org/2000/svg" width="72" height="69.949" viewBox="0 0 72 69.949">
  <g id="Group_531" data-name="Group 531" transform="translate(-153 -290)">
    <g id="orang" transform="translate(53 -5.529)">
      <g id="Group_505" data-name="Group 505" transform="translate(148.913 338.997)">
        <g id="Group_504" data-name="Group 504">
          <path id="Path_123" data-name="Path 123" d="M364.074,329.85a8.1,8.1,0,1,0-9.4,0,11.558,11.558,0,0,0-6.844,10.541,1.255,1.255,0,0,0,2.511,0,9.033,9.033,0,1,1,18.065,0,1.255,1.255,0,0,0,2.511,0A11.56,11.56,0,0,0,364.074,329.85Zm-4.7-1a5.586,5.586,0,1,1,5.586-5.586A5.592,5.592,0,0,1,359.373,328.849Z" transform="translate(-347.83 -315.167)"/>
        </g>
      </g>
      <g id="Group_515" data-name="Group 515" transform="translate(156.337 343.023)">
        <g id="Group_514" data-name="Group 514">
          <circle id="Ellipse_27" data-name="Ellipse 27" cx="1.255" cy="1.255" r="1.255"/>
        </g>
      </g>
      <g id="Group_517" data-name="Group 517" transform="translate(160.939 343.023)">
        <g id="Group_516" data-name="Group 516">
          <circle id="Ellipse_28" data-name="Ellipse 28" cx="1.255" cy="1.255" r="1.255"/>
        </g>
      </g>
      <g id="Group_519" data-name="Group 519" transform="translate(124.457 338.997)">
        <g id="Group_518" data-name="Group 518">
          <path id="Path_128" data-name="Path 128" d="M190.159,329.85a8.1,8.1,0,1,0-9.4,0,11.558,11.558,0,0,0-6.844,10.541,1.255,1.255,0,0,0,2.511,0,9.033,9.033,0,1,1,18.065,0,1.255,1.255,0,0,0,2.511,0A11.56,11.56,0,0,0,190.159,329.85Zm-4.7-1a5.586,5.586,0,1,1,5.586-5.586A5.592,5.592,0,0,1,185.458,328.849Z" transform="translate(-173.915 -315.167)"/>
        </g>
      </g>
      <g id="Group_521" data-name="Group 521" transform="translate(132.444 343.023)">
        <g id="Group_520" data-name="Group 520">
          <circle id="Ellipse_29" data-name="Ellipse 29" cx="1.255" cy="1.255" r="1.255"/>
        </g>
      </g>
      <g id="Group_523" data-name="Group 523" transform="translate(137.047 343.023)">
        <g id="Group_522" data-name="Group 522">
          <circle id="Ellipse_30" data-name="Ellipse 30" cx="1.255" cy="1.255" r="1.255"/>
        </g>
      </g>
      <g id="Group_525" data-name="Group 525" transform="translate(100 338.997)">
        <g id="Group_524" data-name="Group 524">
          <path id="Path_129" data-name="Path 129" d="M16.242,329.851a8.1,8.1,0,1,0-9.4,0A11.56,11.56,0,0,0,0,340.391a1.255,1.255,0,1,0,2.511,0,9.033,9.033,0,0,1,18.065,0,1.255,1.255,0,1,0,2.511,0A11.559,11.559,0,0,0,16.242,329.851Zm-4.7-1a5.586,5.586,0,1,1,5.586-5.586A5.592,5.592,0,0,1,11.543,328.848Z" transform="translate(0 -315.166)"/>
        </g>
      </g>
      <g id="Group_527" data-name="Group 527" transform="translate(113.152 343.023)">
        <g id="Group_526" data-name="Group 526">
          <circle id="Ellipse_31" data-name="Ellipse 31" cx="1.255" cy="1.255" r="1.255"/>
        </g>
      </g>
      <g id="Group_529" data-name="Group 529" transform="translate(108.549 343.023)">
        <g id="Group_528" data-name="Group 528">
          <circle id="Ellipse_32" data-name="Ellipse 32" cx="1.255" cy="1.255" r="1.255"/>
        </g>
      </g>
    </g>
    <path id="garis3" d="M6260.622,522.98l9.045-8.676" transform="translate(-6090 -195)" fill="none" stroke="#000" stroke-linecap="round" stroke-width="2" stroke-dasharray="3"/>
    <path id="garis2" d="M6269.667,522.98l-9.045-8.676" transform="translate(-6059.622 -194)" fill="none" stroke="#000" stroke-linecap="round" stroke-width="2" stroke-dasharray="3"/>
    <path id="garis1" d="M6268.246,521.571l-7.624-7.268" transform="translate(-3704.046 -4609.107) rotate(47)" fill="none" stroke="#000" stroke-linecap="round" stroke-width="2" stroke-dasharray="3"/>
    <g id="rocket-launch" transform="translate(173.324 289.322)">
      <g id="Group_390" data-name="Group 390">
        <path id="Path_73" data-name="Path 73" d="M21.446,15.618A18.56,18.56,0,0,0,16.126.857a.655.655,0,0,0-.9,0,18.553,18.553,0,0,0-5.32,14.76A7.861,7.861,0,0,0,9.973,26.4a.64.64,0,0,0,1.077-.6,7.175,7.175,0,0,1-.165-1.218,4.736,4.736,0,0,1,.857-2.73.651.651,0,0,0,.306.08H19.3a.651.651,0,0,0,.306-.08,4.736,4.736,0,0,1,.857,2.73A8.789,8.789,0,0,1,20.3,25.8a.639.639,0,0,0,1.077.6,7.861,7.861,0,0,0,.067-10.781ZM15.673,2.228a17.036,17.036,0,0,1,2.792,4.065H12.887a16.716,16.716,0,0,1,2.786-4.065Zm-6,21.489a6.615,6.615,0,0,1,.478-6.349c.006.049.673,2.6.931,3.257a5.947,5.947,0,0,0-1.408,3.092Zm9.208-3.067H12.465a17.278,17.278,0,0,1-.147-13.089h6.71A17.278,17.278,0,0,1,18.881,20.65Zm1.39-.024c.355-.912.924-3.22.931-3.257a6.523,6.523,0,0,1,1.071,3.606,6.633,6.633,0,0,1-.594,2.743,6.044,6.044,0,0,0-1.408-3.092Z" fill="#1592e6"/>
        <path id="Path_74" data-name="Path 74" d="M13.1,22.995a.636.636,0,0,0-.637.637v3.2a.637.637,0,1,0,1.273,0v-3.2A.636.636,0,0,0,13.1,22.995Z" fill="#1592e6"/>
        <path id="Path_75" data-name="Path 75" d="M15.673,22.995a.639.639,0,0,0-.453.19l-.006.006a.64.64,0,0,0-.159.282.772.772,0,0,0-.024.171v6.4a.6.6,0,0,0,.018.147.635.635,0,0,0,1.237,0,.6.6,0,0,0,.018-.147v-6.41a.528.528,0,0,0-.024-.171A.619.619,0,0,0,15.673,22.995Z" fill="#1592e6"/>
        <path id="Path_76" data-name="Path 76" d="M18.25,22.995a.636.636,0,0,0-.637.637v3.2a.637.637,0,1,0,1.273,0v-3.2A.629.629,0,0,0,18.25,22.995Z" fill="#1592e6"/>
      </g>
    </g>
  </g>
</svg>
