<svg xmlns="http://www.w3.org/2000/svg" width="130.32" height="39.123" viewBox="0 0 130.32 39.123">
  <g id="Group_694" data-name="Group 694" transform="translate(-414.68 -192)">
    <text id="Techspace" transform="translate(447 220)" fill="#1592e6" font-size="20" font-family="Rufina-Bold, Rufina" font-weight="700"><tspan x="0" y="0">Techspace</tspan></text>
    <g id="Group_693" data-name="Group 693" transform="translate(439.008 192) rotate(45)">
      <path id="Path_167" data-name="Path 167" d="M25.926,20.522A24.653,24.653,0,0,0,18.859.916a.87.87,0,0,0-1.2,0A24.643,24.643,0,0,0,10.6,20.522a10.441,10.441,0,0,0,.089,14.32.85.85,0,0,0,1.431-.8,9.531,9.531,0,0,1-.22-1.618A6.291,6.291,0,0,1,13.037,28.8a.864.864,0,0,0,.407.106h9.636a.864.864,0,0,0,.407-.106,6.291,6.291,0,0,1,1.138,3.627,11.675,11.675,0,0,1-.22,1.618.848.848,0,0,0,1.431.8,10.441,10.441,0,0,0,.089-14.32ZM18.257,2.737a22.628,22.628,0,0,1,3.708,5.4H14.557a22.2,22.2,0,0,1,3.7-5.4ZM10.288,31.28a8.787,8.787,0,0,1,.634-8.433c.008.065.895,3.456,1.236,4.326a7.9,7.9,0,0,0-1.87,4.107Zm12.23-4.074H14A22.95,22.95,0,0,1,13.8,9.82h8.913A22.95,22.95,0,0,1,22.518,27.206Zm1.846-.033c.472-1.212,1.228-4.277,1.236-4.326a8.664,8.664,0,0,1,1.423,4.79,8.81,8.81,0,0,1-.789,3.643,8.029,8.029,0,0,0-1.87-4.107Z" transform="translate(-7.8 -0.678)" fill="#1592e6"/>
      <path id="Path_168" data-name="Path 168" d="M13.3,22.995a.845.845,0,0,0-.846.846v4.253a.846.846,0,1,0,1.691,0V23.84A.845.845,0,0,0,13.3,22.995Z" transform="translate(-6.27 6.648)" fill="#1592e6"/>
      <path id="Path_169" data-name="Path 169" d="M15.884,22.995a.848.848,0,0,0-.6.252l-.008.008a.85.85,0,0,0-.211.374,1.025,1.025,0,0,0-.033.228v8.5a.8.8,0,0,0,.024.2.844.844,0,0,0,1.643,0,.8.8,0,0,0,.024-.2V23.84a.7.7,0,0,0-.033-.228A.823.823,0,0,0,15.884,22.995Z" transform="translate(-5.426 6.648)" fill="#1592e6"/>
      <path id="Path_170" data-name="Path 170" d="M18.459,22.995a.845.845,0,0,0-.846.846v4.253a.846.846,0,1,0,1.691,0V23.84A.835.835,0,0,0,18.459,22.995Z" transform="translate(-4.578 6.648)" fill="#1592e6"/>
    </g>
  </g>
</svg>
