<svg xmlns="http://www.w3.org/2000/svg" width="128.109" height="40.018" viewBox="0 0 128.109 40.018">
  <g id="Group_695" data-name="Group 695" transform="translate(-405.891 -232.278)">
    <g id="Group_694" data-name="Group 694" transform="translate(-1 -8)">
      <text id="Techspace" transform="translate(440 269)" fill="#1592e6" font-size="20" font-family="SegoeUI-Bold, Segoe UI" font-weight="700"><tspan x="0" y="0">Techspace</tspan></text>
      <g id="Group_693" data-name="Group 693" transform="translate(439.139 233.278) rotate(45)">
        <path id="Path_167" data-name="Path 167" d="M25.9,21.272A26.184,26.184,0,0,0,18.84.925a.845.845,0,0,0-1.193,0,26.173,26.173,0,0,0-7.055,20.347,11.15,11.15,0,0,0,.089,14.861.851.851,0,0,0,1.429-.827,10.26,10.26,0,0,1-.219-1.679,6.709,6.709,0,0,1,1.137-3.764.837.837,0,0,0,.406.11h9.62a.837.837,0,0,0,.406-.11A6.709,6.709,0,0,1,24.6,33.627a12.569,12.569,0,0,1-.219,1.679.85.85,0,0,0,1.429.827A11.15,11.15,0,0,0,25.9,21.272ZM18.24,2.815a23.538,23.538,0,0,1,3.7,5.6h-7.4a23.1,23.1,0,0,1,3.694-5.6ZM10.284,32.437a9.433,9.433,0,0,1,.633-8.751c.008.068.893,3.587,1.234,4.49a8.349,8.349,0,0,0-1.867,4.262Zm12.21-4.228H13.986a24.69,24.69,0,0,1-.195-18.043h8.9A24.69,24.69,0,0,1,22.494,28.209Zm1.843-.034c.471-1.257,1.226-4.439,1.234-4.49a9.25,9.25,0,0,1,1.421,4.971,9.449,9.449,0,0,1-.787,3.781,8.487,8.487,0,0,0-1.867-4.262Z" transform="translate(-7.8 9.221)" fill="#1592e6"/>
        <path id="Path_168" data-name="Path 168" d="M13.52,22.995a1.06,1.06,0,0,0-1.061,1.061v5.336a1.061,1.061,0,1,0,2.122,0V24.056A1.06,1.06,0,0,0,13.52,22.995Z" transform="translate(-6.42 8.494)" fill="#1592e6"/>
        <path id="Path_169" data-name="Path 169" d="M16.1,22.995a1.064,1.064,0,0,0-.755.316l-.01.01a1.066,1.066,0,0,0-.265.469,1.286,1.286,0,0,0-.041.286V34.739a1.006,1.006,0,0,0,.031.245,1.059,1.059,0,0,0,2.061,0,1.006,1.006,0,0,0,.031-.245V24.056a.88.88,0,0,0-.041-.286A1.032,1.032,0,0,0,16.1,22.995Z" transform="translate(-5.659 6.735)" fill="#1592e6"/>
        <path id="Path_170" data-name="Path 170" d="M18.675,22.995a1.06,1.06,0,0,0-1.061,1.061v5.336a1.061,1.061,0,1,0,2.122,0V24.056A1.048,1.048,0,0,0,18.675,22.995Z" transform="translate(-4.894 8.494)" fill="#1592e6"/>
      </g>
    </g>
  </g>
</svg>
