<svg xmlns="http://www.w3.org/2000/svg" xmlns:xlink="http://www.w3.org/1999/xlink" width="25" height="25" viewBox="0 0 25 25">
  <defs>
    <clipPath id="clip-path">
      <rect id="Rectangle_79" data-name="Rectangle 79" width="25" height="25" transform="translate(783 136)" fill="#d3bb20" stroke="#707070" stroke-width="1"/>
    </clipPath>
  </defs>
  <g id="Mask_Group_19" data-name="Mask Group 19" transform="translate(-783 -136)" clip-path="url(#clip-path)">
    <g id="medal-on-a-ribbon-for-number-one" transform="translate(783 136)">
      <g id="Group_521" data-name="Group 521">
        <path id="Path_127" data-name="Path 127" d="M3.53,22.5l3.425-1.378a.418.418,0,0,1,.551.244L8.79,24.829c.083.224.229.228.325.01L12.5,17.193l3.385,7.646c.1.218.242.214.325-.01l1.283-3.462a.418.418,0,0,1,.551-.244L21.47,22.5c.221.089.323-.016.226-.234l-3.3-7.465a8.843,8.843,0,0,1-5.825,2.241l-.066,0-.066,0A8.843,8.843,0,0,1,6.609,14.8L3.3,22.267C3.207,22.485,3.309,22.59,3.53,22.5Z" fill="#d3bb20"/>
        <path id="Path_128" data-name="Path 128" d="M6.914,14.112a8.131,8.131,0,0,0,5.2,2.2c.129.006.258.01.388.01s.259,0,.388-.01a8.167,8.167,0,1,0-5.974-2.2ZM12.5,1.478A6.682,6.682,0,1,1,5.815,8.163,6.693,6.693,0,0,1,12.5,1.478Z" fill="#d3bb20"/>
        <path id="Path_129" data-name="Path 129" d="M11.067,13.955a5.969,5.969,0,1,0-3.189-2.02A5.98,5.98,0,0,0,11.067,13.955Zm-.356-9.21,1.877-1a.144.144,0,0,1,.068-.017h.992a.144.144,0,0,1,.144.144V12.46a.144.144,0,0,1-.144.144H12.523a.144.144,0,0,1-.144-.144V5.177l-1.308.706a.144.144,0,0,1-.208-.091l-.224-.886A.144.144,0,0,1,10.71,4.745Z" fill="#d3bb20"/>
      </g>
    </g>
  </g>
</svg>
