<svg xmlns="http://www.w3.org/2000/svg" xmlns:xlink="http://www.w3.org/1999/xlink" width="100" height="94.592" viewBox="0 0 100 94.592">
  <defs>
    <clipPath id="clip-path">
      <rect id="Rectangle_37" data-name="Rectangle 37" width="100" height="70" transform="translate(276 482)" fill="#fff"/>
    </clipPath>
    <clipPath id="clip-path-2">
      <rect id="Rectangle_44" data-name="Rectangle 44" width="30" height="30" transform="translate(366 644)" fill="#1592e6" opacity="0.25"/>
    </clipPath>
  </defs>
  <g id="Group_396" data-name="Group 396" transform="translate(-265 -1172.408)">
    <g id="Group_393" data-name="Group 393" transform="translate(-11 715)">
      <g id="Mask_Group_1" data-name="Mask Group 1" clip-path="url(#clip-path)">
        <g id="lightbulb" transform="translate(291 482)">
          <g id="Group_356" data-name="Group 356" transform="translate(0 -12.634)">
            <g id="Group_355" data-name="Group 355" transform="translate(17.051 15.088)">
              <path id="Path_42" data-name="Path 42" d="M39.2,15.088A22.177,22.177,0,0,0,24.539,53.879c3.5,3.5,3.186,10.992,3.106,11.072a1.319,1.319,0,0,0,.4,1.035,1.47,1.47,0,0,0,.956.4H49.311a1.319,1.319,0,0,0,.956-.4,1.514,1.514,0,0,0,.4-1.035c0-.08-.4-7.567,3.106-11.072l.239-.239A22.11,22.11,0,0,0,39.2,15.088ZM51.94,51.808c-.08.08-.239.239-.239.319-3.106,3.345-3.664,8.842-3.744,11.47h-17.6c-.08-2.629-.637-8.364-3.983-11.789a19.4,19.4,0,1,1,25.569,0Z" transform="translate(-17.051 -15.088)" fill="#231f20"/>
              <path id="Path_44" data-name="Path 44" d="M46.11,58.02H28.426a3.345,3.345,0,1,0,0,6.691h17.6a3.435,3.435,0,0,0,3.425-3.345A3.366,3.366,0,0,0,46.11,58.02Zm0,3.9H28.426a.628.628,0,0,1-.637-.637.586.586,0,0,1,.637-.637h17.6a.628.628,0,0,1,.637.637A.568.568,0,0,1,46.11,61.923Z" transform="translate(-15.204 -5.21)" fill="#231f20"/>
              <path id="Path_45" data-name="Path 45" d="M42.989,64.561H30.563a3.345,3.345,0,0,0,0,6.691H42.989a3.366,3.366,0,0,0,3.345-3.345A3.315,3.315,0,0,0,42.989,64.561Zm0,3.9H30.563a.628.628,0,0,1-.637-.637.586.586,0,0,1,.637-.637H42.989a.637.637,0,0,1,0,1.274Z" transform="translate(-14.712 -3.705)" fill="#231f20"/>
            </g>
          </g>
        </g>
      </g>
      <g id="Mask_Group_4" data-name="Mask Group 4" transform="translate(-51 -143)" clip-path="url(#clip-path-2)">
        <g id="rocket-launch" transform="translate(365.324 643.322)">
          <g id="Group_385" data-name="Group 385">
            <path id="Path_61" data-name="Path 61" d="M21.446,15.618A18.56,18.56,0,0,0,16.126.857a.655.655,0,0,0-.9,0,18.553,18.553,0,0,0-5.32,14.76A7.861,7.861,0,0,0,9.973,26.4a.64.64,0,0,0,1.077-.6,7.175,7.175,0,0,1-.165-1.218,4.736,4.736,0,0,1,.857-2.73.651.651,0,0,0,.306.08H19.3a.651.651,0,0,0,.306-.08,4.736,4.736,0,0,1,.857,2.73A8.789,8.789,0,0,1,20.3,25.8a.639.639,0,0,0,1.077.6,7.861,7.861,0,0,0,.067-10.781ZM15.673,2.228a17.036,17.036,0,0,1,2.792,4.065H12.887a16.716,16.716,0,0,1,2.786-4.065Zm-6,21.489a6.615,6.615,0,0,1,.478-6.349c.006.049.673,2.6.931,3.257a5.947,5.947,0,0,0-1.408,3.092Zm9.208-3.067H12.465a17.278,17.278,0,0,1-.147-13.089h6.71A17.278,17.278,0,0,1,18.881,20.65Zm1.39-.024c.355-.912.924-3.22.931-3.257a6.523,6.523,0,0,1,1.071,3.606,6.633,6.633,0,0,1-.594,2.743,6.044,6.044,0,0,0-1.408-3.092Z" fill="#1592e6"/>
            <path id="Path_62" data-name="Path 62" d="M13.1,22.995a.636.636,0,0,0-.637.637v3.2a.637.637,0,1,0,1.273,0v-3.2A.636.636,0,0,0,13.1,22.995Z" fill="#1592e6"/>
            <path id="Path_63" data-name="Path 63" d="M15.673,22.995a.639.639,0,0,0-.453.19l-.006.006a.64.64,0,0,0-.159.282.772.772,0,0,0-.024.171v6.4a.6.6,0,0,0,.018.147.635.635,0,0,0,1.237,0,.6.6,0,0,0,.018-.147v-6.41a.528.528,0,0,0-.024-.171A.619.619,0,0,0,15.673,22.995Z" fill="#1592e6"/>
            <path id="Path_64" data-name="Path 64" d="M18.25,22.995a.636.636,0,0,0-.637.637v3.2a.637.637,0,1,0,1.273,0v-3.2A.629.629,0,0,0,18.25,22.995Z" fill="#1592e6"/>
          </g>
        </g>
      </g>
    </g>
    <g id="Group_395" data-name="Group 395" transform="translate(0 -4)">
      <path id="Path_80" data-name="Path 80" d="M4650.021,1218.534l19.082-9.521" transform="translate(-4420.19 574.383) rotate(-7)" fill="none" stroke="#000" stroke-linecap="round" stroke-width="3" stroke-dasharray="4"/>
      <path id="Path_81" data-name="Path 81" d="M0,0,19.082,9.521" transform="translate(294.451 1217.139) rotate(-173)" fill="none" stroke="#000" stroke-linecap="round" stroke-width="3" stroke-dasharray="4"/>
      <path id="Path_83" data-name="Path 83" d="M0,0,15.878,7.478" transform="matrix(-0.914, -0.407, 0.407, -0.914, 303.332, 1202.481)" fill="none" stroke="#000" stroke-linecap="round" stroke-width="3" stroke-dasharray="4"/>
      <path id="Path_84" data-name="Path 84" d="M0,7.478,15.878,0" transform="matrix(0.914, -0.407, 0.407, 0.914, 330.826, 1195.65)" fill="none" stroke="#000" stroke-linecap="round" stroke-width="3" stroke-dasharray="4"/>
      <path id="Path_85" data-name="Path 85" d="M0,7.478,15.878,0" transform="translate(311.856 1193.451) rotate(-65)" fill="none" stroke="#000" stroke-linecap="round" stroke-width="3" stroke-dasharray="4"/>
    </g>
  </g>
</svg>
