<svg xmlns="http://www.w3.org/2000/svg" xmlns:xlink="http://www.w3.org/1999/xlink" width="25" height="25" viewBox="0 0 25 25">
  <defs>
    <clipPath id="clip-path">
      <rect id="Rectangle_82" data-name="Rectangle 82" width="25" height="25" transform="translate(904 454)" fill="#fff" stroke="#707070" stroke-width="1"/>
    </clipPath>
  </defs>
  <g id="Mask_Group_20" data-name="Mask Group 20" transform="translate(-904 -454)" clip-path="url(#clip-path)">
    <path id="internet" d="M21.848,20.785a12.466,12.466,0,0,0-.241-16.834h0L21.6,3.945A12.465,12.465,0,0,0,12.933.011h0L12.689,0c-.063,0-.126,0-.189,0s-.126,0-.189,0l-.243.006h0A12.465,12.465,0,0,0,3.4,3.945s0,0-.006.006h0a12.465,12.465,0,0,0-.242,16.834s0,.008.006.012.019.016.027.026a12.472,12.472,0,0,0,8.883,4.166h0L12.31,25c.063,0,.126,0,.19,0s.126,0,.189,0l.243-.006h0a12.471,12.471,0,0,0,8.89-4.175c.006-.007.015-.009.02-.017S21.846,20.789,21.848,20.785ZM.873,12.931H6.047A15.929,15.929,0,0,0,7.088,18.2a15.894,15.894,0,0,0-3.5,1.781A11.584,11.584,0,0,1,.873,12.931Zm2.954-8.18A15.855,15.855,0,0,0,7.232,6.425a15.917,15.917,0,0,0-1.185,5.644H.873A11.587,11.587,0,0,1,3.827,4.751Zm20.3,7.318H18.953a15.917,15.917,0,0,0-1.185-5.644,15.855,15.855,0,0,0,3.405-1.673A11.587,11.587,0,0,1,24.127,12.069ZM12.069,6.45A15.068,15.068,0,0,1,8.418,5.9,15.081,15.081,0,0,1,12.069,1.14Zm0,.862v4.757H6.909A15.054,15.054,0,0,1,8.058,6.692,15.926,15.926,0,0,0,12.069,7.312Zm.862,0a15.913,15.913,0,0,0,4.012-.62,15.054,15.054,0,0,1,1.149,5.377H12.931Zm0-.862V1.14A15.081,15.081,0,0,1,16.582,5.9,15.068,15.068,0,0,1,12.931,6.45Zm4.487-.815a15.918,15.918,0,0,0-3.4-4.67,11.6,11.6,0,0,1,6.544,3.154A14.992,14.992,0,0,1,17.418,5.634Zm-9.835,0A14.979,14.979,0,0,1,4.438,4.119,11.6,11.6,0,0,1,10.983.964,15.912,15.912,0,0,0,7.582,5.634Zm-.674,7.3h5.16v4.327a15.9,15.9,0,0,0-4.164.664A15.054,15.054,0,0,1,6.909,12.931Zm5.16,5.189V23.86A15.073,15.073,0,0,1,8.24,18.724,15.029,15.029,0,0,1,12.069,18.12Zm.862,5.741V18.12a15.028,15.028,0,0,1,3.829.6A15.071,15.071,0,0,1,12.931,23.86Zm0-6.6V12.931h5.16a15.048,15.048,0,0,1-1,4.991A15.874,15.874,0,0,0,12.931,17.258Zm6.022-4.327h5.174a11.582,11.582,0,0,1-2.719,7.047,15.894,15.894,0,0,0-3.5-1.781A15.918,15.918,0,0,0,18.953,12.931ZM4.177,20.623a15.022,15.022,0,0,1,3.24-1.63,15.905,15.905,0,0,0,3.565,5.042A11.613,11.613,0,0,1,4.177,20.623Zm9.841,3.413a15.9,15.9,0,0,0,3.565-5.042,15.032,15.032,0,0,1,3.24,1.63A11.613,11.613,0,0,1,14.018,24.036Z" transform="translate(904 454)"/>
  </g>
</svg>
